REM DIRINDEX 1\2,1\3
REM DIRNAME cjc133,folder01,folder02
TITLE ""
FILE "DISC2Track05.mp3" MP3
  TRACK 01 AUDIO
    TITLE "0:"
    INDEX 01 00:00:00
  TRACK 02 AUDIO
    TITLE "3:cjc133_1889"
    INDEX 01 00:00:13
  TRACK 03 AUDIO
    TITLE "0:"
    INDEX 01 00:01:44
  TRACK 04 AUDIO
    TITLE "3:cjc133_1890"
    INDEX 01 00:01:73
  TRACK 05 AUDIO
    TITLE "0:"
    INDEX 01 00:02:69
  TRACK 06 AUDIO
    TITLE "2:cjc133_1891"
    INDEX 01 00:03:43
  TRACK 07 AUDIO
    TITLE "2:cjc133_1892"
    INDEX 01 00:05:34
  TRACK 08 AUDIO
    TITLE "2:cjc133_1893"
    INDEX 01 00:08:38
  TRACK 09 AUDIO
    TITLE "0:"
    INDEX 01 00:10:49
  TRACK 10 AUDIO
    TITLE "2:cjc133_1894"
    INDEX 01 00:11:27
  TRACK 11 AUDIO
    TITLE "2:cjc133_1895"
    INDEX 01 00:13:12
  TRACK 12 AUDIO
    TITLE "2:cjc133_1896"
    INDEX 01 00:16:12
  TRACK 13 AUDIO
    TITLE "0:"
    INDEX 01 00:18:17
  TRACK 14 AUDIO
    TITLE "2:cjc133_1897"
    INDEX 01 00:18:70
  TRACK 15 AUDIO
    TITLE "2:cjc133_1898"
    INDEX 01 00:21:00
  TRACK 16 AUDIO
    TITLE "2:cjc133_1899"
    INDEX 01 00:24:45
  TRACK 17 AUDIO
    TITLE "0:"
    INDEX 01 00:27:24
  TRACK 18 AUDIO
    TITLE "2:cjc133_1900"
    INDEX 01 00:28:00
  TRACK 19 AUDIO
    TITLE "2:cjc133_1901"
    INDEX 01 00:30:12
  TRACK 20 AUDIO
    TITLE "2:cjc133_1902"
    INDEX 01 00:33:56
  TRACK 21 AUDIO
    TITLE "0:"
    INDEX 01 00:36:27
  TRACK 22 AUDIO
    TITLE "2:cjc133_1903"
    INDEX 01 00:37:03
  TRACK 23 AUDIO
    TITLE "2:cjc133_1904"
    INDEX 01 00:38:43
  TRACK 24 AUDIO
    TITLE "2:cjc133_1905"
    INDEX 01 00:41:26
  TRACK 25 AUDIO
    TITLE "0:"
    INDEX 01 00:43:19
  TRACK 26 AUDIO
    TITLE "2:cjc133_1906"
    INDEX 01 00:43:68
  TRACK 27 AUDIO
    TITLE "2:cjc133_1907"
    INDEX 01 00:45:57
  TRACK 28 AUDIO
    TITLE "2:cjc133_1908"
    INDEX 01 00:49:02
  TRACK 29 AUDIO
    TITLE "0:"
    INDEX 01 00:51:26
  TRACK 30 AUDIO
    TITLE "2:cjc133_1909"
    INDEX 01 00:52:06
  TRACK 31 AUDIO
    TITLE "2:cjc133_1910"
    INDEX 01 00:55:16
  TRACK 32 AUDIO
    TITLE "2:cjc133_1911"
    INDEX 01 00:59:67
  TRACK 33 AUDIO
    TITLE "0:"
    INDEX 01 01:03:08
  TRACK 34 AUDIO
    TITLE "2:cjc133_1912"
    INDEX 01 01:03:59
  TRACK 35 AUDIO
    TITLE "2:cjc133_1913"
    INDEX 01 01:06:26
  TRACK 36 AUDIO
    TITLE "2:cjc133_1914"
    INDEX 01 01:10:18
  TRACK 37 AUDIO
    TITLE "0:"
    INDEX 01 01:13:14
  TRACK 38 AUDIO
    TITLE "2:cjc133_1915"
    INDEX 01 01:13:67
  TRACK 39 AUDIO
    TITLE "2:cjc133_1916"
    INDEX 01 01:15:54
  TRACK 40 AUDIO
    TITLE "2:cjc133_1917"
    INDEX 01 01:18:72
  TRACK 41 AUDIO
    TITLE "0:"
    INDEX 01 01:21:18
  TRACK 42 AUDIO
    TITLE "2:cjc133_1918"
    INDEX 01 01:21:70
  TRACK 43 AUDIO
    TITLE "2:cjc133_1919"
    INDEX 01 01:24:08
  TRACK 44 AUDIO
    TITLE "2:cjc133_1920"
    INDEX 01 01:27:30
  TRACK 45 AUDIO
    TITLE "0:"
    INDEX 01 01:29:56
  TRACK 46 AUDIO
    TITLE "2:cjc133_1921"
    INDEX 01 01:30:28
  TRACK 47 AUDIO
    TITLE "2:cjc133_1922"
    INDEX 01 01:32:57
  TRACK 48 AUDIO
    TITLE "2:cjc133_1923"
    INDEX 01 01:36:50
  TRACK 49 AUDIO
    TITLE "0:"
    INDEX 01 01:39:12
  TRACK 50 AUDIO
    TITLE "2:cjc133_1924"
    INDEX 01 01:39:68
  TRACK 51 AUDIO
    TITLE "2:cjc133_1925"
    INDEX 01 01:42:16
  TRACK 52 AUDIO
    TITLE "2:cjc133_1926"
    INDEX 01 01:46:33
  TRACK 53 AUDIO
    TITLE "0:"
    INDEX 01 01:49:14
  TRACK 54 AUDIO
    TITLE "2:cjc133_1927"
    INDEX 01 01:49:65
  TRACK 55 AUDIO
    TITLE "2:cjc133_1928"
    INDEX 01 01:51:58
  TRACK 56 AUDIO
    TITLE "2:cjc133_1929"
    INDEX 01 01:54:70
  TRACK 57 AUDIO
    TITLE "0:"
    INDEX 01 01:57:19
  TRACK 58 AUDIO
    TITLE "2:cjc133_1930"
    INDEX 01 01:57:66
  TRACK 59 AUDIO
    TITLE "2:cjc133_1931"
    INDEX 01 01:59:55
  TRACK 60 AUDIO
    TITLE "2:cjc133_1932"
    INDEX 01 02:02:71
  TRACK 61 AUDIO
    TITLE "0:"
    INDEX 01 02:05:33
  TRACK 62 AUDIO
    TITLE "2:cjc133_1933"
    INDEX 01 02:06:05
  TRACK 63 AUDIO
    TITLE "2:cjc133_1934"
    INDEX 01 02:08:07
  TRACK 64 AUDIO
    TITLE "2:cjc133_1935"
    INDEX 01 02:11:25
  TRACK 65 AUDIO
    TITLE "0:"
    INDEX 01 02:13:48
